<svg xmlns="http://www.w3.org/2000/svg" viewBox="0 0 2161.71 1717.09"><defs><style>.cls-1{isolation:isolate;}.cls-2{fill:#e5e7ed;opacity:0.6;}.cls-3,.cls-6{fill:#d8dff4;}.cls-3{mix-blend-mode:multiply;}.cls-10,.cls-15,.cls-16,.cls-18,.cls-19,.cls-4,.cls-7,.cls-8{fill:none;stroke-miterlimit:10;}.cls-19,.cls-4{stroke:#fff;}.cls-16,.cls-18,.cls-4{stroke-width:2.27px;}.cls-5{fill:#32436b;}.cls-18,.cls-7{stroke:#32436b;}.cls-10,.cls-7,.cls-8{stroke-width:6.8px;}.cls-8{stroke:#d8dff4;}.cls-9{fill:#6e80b4;}.cls-10,.cls-15,.cls-16{stroke:#12121c;}.cls-11{fill:#ff7875;}.cls-12{fill:#12121c;}.cls-13{fill:#faa53c;}.cls-14{fill:#e08a2d;}.cls-15{stroke-width:4.53px;}.cls-17{fill:#fff;}.cls-19{stroke-width:9.06px;}</style></defs><g class="cls-1"><g id="Layer_1" data-name="Layer 1"><path class="cls-2" d="M-335.11,602.84c72.82,182.44-63.09,259.93-43,423.91,31.52,257.51,389.57,96.19,520.1,67,144.51-32.33,290.89-23.8,438.9-23.8,158.63,0,329.22-10,486.94,8.45,102.11,11.94,193.22,64.83,299.2,52,94-11.36,171.37-67,237.16-138.25C1766,817.1,1776.45,589.68,1717.86,361.3c-35.52-138.46-27.11-149.75-97.44-391.53-36.91-126.83-92.07-383.06-625.48-394.92C850.37-428.36,714-404.84,570.85-391-183.48-318.37-585.45-24.52-335.11,602.84Z" transform="translate(411.25 438.27)"/><path class="cls-3" d="M275.85,916.12c-29.52-29.06-73.58-47.61-110.15-66-51.53-25.86-106.55-23-159.87-43.2-87.92-33.36-168.66-92.4-221.9-169.92-47.74-69.52-92.15-130.82-107.87-215.26-5.91-31.8-10.58-62.78-22.6-93.19-12.86-32.53-32.82-49.88-51-76.2-2.85-4.11-9.8-7.64-13.69-10.84,40-13.76,94.68,1,135.5,7.56,41.73,6.74,89.49,7.8,128.56,24.87C-46.46,318,39.5,399.23,93.26,493.89c40.36,71.07,72.54,142.92,101,219.31,20.06,53.84,31.57,110.89,56.86,162.2,6.53,13.28,25.89,35.21,21.72,46.19" transform="translate(411.25 438.27)"/><path class="cls-4" d="M-325,287.28c47.85,20.89,75.73,48.55,108.08,87.7,52,62.94,101.38,125.57,160.55,183.15,53,51.58,107,102.3,160.42,153.54,22.59,21.64,46.2,42.82,70,63.12,16.47,14.07,46,22.79,58.26,38.82" transform="translate(411.25 438.27)"/><path class="cls-4" d="M-118.28,685.1c49,17.25,109.08,26.6,161,21.43" transform="translate(411.25 438.27)"/><path class="cls-4" d="M-245.83,525c38.35,42.72,96.43,36.69,142.89,54.3" transform="translate(411.25 438.27)"/><path class="cls-4" d="M-279.49,412.25c27.39,24.6,53.66,37.49,87.69,48.23" transform="translate(411.25 438.27)"/><path class="cls-4" d="M-153.16,403.19c-19.54-24.71-22.53-74.45-31.18-104.25" transform="translate(411.25 438.27)"/><path class="cls-4" d="M-55.8,519.55c-19.51-26.8-17.46-56.56-20.52-87.81-2.09-21.39-25.56-79.52-21.91-86.87" transform="translate(411.25 438.27)"/><path class="cls-4" d="M88.59,664.64C65.47,615.45,53.26,563.13,48.78,508.53" transform="translate(411.25 438.27)"/><path class="cls-3" d="M356.59,735.16C326.49,684.66,272.65,643.34,229,605,167.52,551,90.94,535.25,25,488.3c-108.75-77.42-198.43-187.45-243.72-313-40.61-112.62-79.54-212.75-70.82-334.34,3.28-45.8,8-90,2.42-136.08-6-49.32-27.19-80.28-42.7-123-2.43-6.69-10.72-14-14.9-19.8,59.79-4.57,129.63,35.3,183.37,59,54.84,24.27,120.06,42.83,167.59,80.32C128.76-202,217.6-59.53,257.44,89.77c29.91,112.09,48.32,222.31,60,337.44,8.21,81.1,3.53,163.62,19.84,243.12,4.21,20.61,22.89,57.67,13.22,71.26" transform="translate(411.25 438.27)"/><path class="cls-4" d="M-242.74-344.14c58.21,45.87,86.61,93.86,117,159.24C-77-79.81-31.67,23.92,28.92,124.22c54.25,89.9,110.19,178.94,165.17,268.48,23.22,37.83,48.06,75.38,73.4,111.81,17.54,25.22,55,47.8,66.05,74.21" transform="translate(411.25 438.27)"/><path class="cls-4" d="M-101.7,276.39c61.1,41.28,140.26,75.69,213.41,87.22" transform="translate(411.25 438.27)"/><path class="cls-4" d="M-219.38,10.72c37.33,72.46,119.25,85,176.74,125.89" transform="translate(411.25 438.27)"/><path class="cls-4" d="M-225.13-156.19c28.8,43.62,60.24,70.76,103.13,97.73" transform="translate(411.25 438.27)"/><path class="cls-4" d="M-48.38-123.26c-17.94-41-4.21-110.35-5.4-154.36" transform="translate(411.25 438.27)"/><path class="cls-4" d="M43.54,71.5c-17.17-43.84-3.67-83.95,3.35-128C51.71-86.59,40.34-174.85,48-183.63" transform="translate(411.25 438.27)"/><path class="cls-4" d="M189.74,322.57c-14.09-75.85-12.05-152.09,1.39-228.67" transform="translate(411.25 438.27)"/><path class="cls-5" d="M245.67,984.44A29.65,29.65,0,1,1,216,954.78,29.65,29.65,0,0,1,245.67,984.44Z" transform="translate(411.25 438.27)"/><path class="cls-5" d="M461.59,984.44a29.65,29.65,0,1,1-29.65-29.66A29.66,29.66,0,0,1,461.59,984.44Z" transform="translate(411.25 438.27)"/><path class="cls-5" d="M675.89,984.44a29.66,29.66,0,1,1-29.67-29.66A29.67,29.67,0,0,1,675.89,984.44Z" transform="translate(411.25 438.27)"/><path class="cls-5" d="M1010.83,984.44a29.66,29.66,0,1,1-29.65-29.66A29.65,29.65,0,0,1,1010.83,984.44Z" transform="translate(411.25 438.27)"/><rect class="cls-6" x="887.08" y="284.48" width="648.22" height="1126.83"/><line class="cls-7" x1="898.21" y1="416.78" x2="898.21" y2="1411.3"/><line class="cls-7" x1="896.02" y1="695.06" x2="1535.29" y2="695.06"/><rect class="cls-5" x="896.2" y="286.76" width="442.35" height="260.04"/><polyline class="cls-8" points="901.59 430.46 1161.17 430.46 1338.55 546.8"/><rect class="cls-9" x="936.79" y="964.22" width="552.36" height="109.49"/><rect class="cls-9" x="936.79" y="1103.36" width="552.36" height="109.5"/><rect class="cls-9" x="936.79" y="1242.5" width="552.36" height="109.49"/><rect class="cls-5" x="1144.67" y="964.22" width="136.61" height="31.93"/><rect class="cls-5" x="1144.67" y="1103.36" width="136.61" height="31.93"/><rect class="cls-5" x="1144.67" y="1242.5" width="136.61" height="31.94"/><line class="cls-7" x1="896.2" y1="546.8" x2="1535.29" y2="546.8"/><polygon class="cls-6" points="532.29 266.23 532.29 1411.3 898.22 1411.3 898.22 416.78 697.86 266.23 532.29 266.23"/><line class="cls-7" x1="541.43" y1="562.76" x2="886.3" y2="562.76"/><polygon class="cls-5" points="370.81 327.82 532.29 658.56 532.29 416.78 416.41 298.16 370.81 327.82"/><path class="cls-3" d="M472.7,906.78c-11.07-20.18-20-40.37-23.09-63.39-3.42-25.08-3-50.75-7.41-75.65-6.32-35.68-24.13-72.64-58.52-89-23.12-11-48.65-13.84-72.43-22.85-31.72-12-55.36-37.45-68-68.7-31.26-77.37-16.09-169-3.54-248.87C261.22,201.52,309.35-68.83,121-109.47V973H487V934.64C482.53,925.4,477.87,916.15,472.7,906.78Z" transform="translate(411.25 438.27)"/><line class="cls-10" x1="418.64" y1="354.27" x2="528.01" y2="546.8"/><path class="cls-3" d="M1086,912.05c-20.48-9.81-43.14-18.72-59.94-34.51-29.85-28.08-37.15-69.4-30.94-108.67,6.25-39.66,22.72-76.08,34.17-114.28,10.51-35.06,16.68-76.3-19.94-98.46-50.39-30.52-115.13-26.89-170.51-43-42.39-12.33-95.66-36-112.84-80.55-30.25-78.52,59.9-173.7-16.12-240.09-60.41-52.76-160.67-50.44-234-31.93V973H1124V936.44C1113,926.71,1100.4,919,1086,912.05Z" transform="translate(411.25 438.27)"/><polygon class="cls-6" points="948.24 149.9 914.2 286.76 1508.17 286.76 1479.78 150.14 948.24 149.9"/><path class="cls-3" d="M1066.12-216.9c-51,.7-100.23-8.54-150.86-11.78-28.46-1.82-56.46-1.59-84.66,3.25-20,3.43-37.49,12.85-56.84,18.2-17.22,4.77-51.29,10.61-61.58-9.69-9.54-18.83,4.2-44.73-20.24-57.37-26.59-13.78-63.31-9-91.88-5.4a684.65,684.65,0,0,0-68.24,12.08L503-151.51h594l-13.68-65.88C1077.54-217.16,1071.81-217,1066.12-216.9Z" transform="translate(411.25 438.27)"/><path class="cls-3" d="M913.35,82.08c.81-.3,1.63-.48,2.43-.7-.92-.36-1.81-.76-2.74-1.1-24.83-9-49.63-16.94-68.63-36.2-14.09-14.29-18.84-36.73-24.66-55.14C807.45-49.93,782-69.57,740-70.29c-33-.58-68.37,6.64-100.63-2.64-26.62-7.68-47-23.22-67.72-41-24.3-20.84-46.28-28.7-78.6-23.34a4.64,4.64,0,0,1-2.57-.34c-.17.09-.25.27-.47.34-1.69.58-3.34,1.25-5,1.88V108.53H927.3V92.42c-4.63-.35-9.29-.84-13.95-1.55C908.43,90.13,909.58,83.44,913.35,82.08Z" transform="translate(411.25 438.27)"/><rect class="cls-9" x="1178.39" y="194.24" width="413.74" height="207.84"/><rect class="cls-5" x="1201.81" y="220.53" width="353.12" height="152.88"/><line class="cls-4" x1="1243.9" y1="245.85" x2="1243.9" y2="336.63"/><line class="cls-4" x1="1313.17" y1="245.85" x2="1313.17" y2="336.63"/><line class="cls-4" x1="1382.44" y1="245.85" x2="1382.44" y2="336.63"/><line class="cls-4" x1="1451.72" y1="245.85" x2="1451.72" y2="336.63"/><line class="cls-4" x1="1521" y1="245.85" x2="1521" y2="336.63"/><line class="cls-4" x1="1217.61" y1="277.86" x2="1536.55" y2="277.86"/><line class="cls-4" x1="1217.61" y1="308.91" x2="1536.55" y2="308.91"/><rect class="cls-11" x="1261.41" y="244.42" width="38.21" height="25.48"/><rect class="cls-9" x="1330.52" y="244.42" width="38.23" height="25.48"/><rect class="cls-9" x="1395.01" y="244.42" width="38.23" height="25.48"/><rect class="cls-9" x="1462.45" y="244.42" width="38.23" height="25.48"/><path class="cls-12" d="M1411.26,1216s16.06-.31,34.73,14.33c11.1,8.69,27.91-9.27,33-13.92,1.06-1,2.49-.09,2.66,1.6l6.45,60.76H1325.56c-1.89,0-3.42-2-3.42-4.59v-12.8a4.7,4.7,0,0,1,2.34-4.37Z" transform="translate(411.25 438.27)"/><path class="cls-11" d="M1482.51,1225.82l10.75-93.61-72.23-8.3-9.77,92.13s13.21,16.84,28.11,20.4S1482.51,1225.82,1482.51,1225.82Z" transform="translate(411.25 438.27)"/><path class="cls-12" d="M1616.35,997.65s-5.5-15.09,2.34-37.5c4.65-13.31-17.77-23.42-23.82-26.8-1.24-.69-.89-2.31.65-3l55.44-25.7,52.42,153.89c.61,1.8-.85,3.91-3.25,4.73l-12.1,4.12a4.65,4.65,0,0,1-4.89-.82Z" transform="translate(411.25 438.27)"/><path class="cls-11" d="M1602.62,927.05l-92.08,20,15.43,71,90.38-20.45s11.66-17.93,10.23-33.18S1602.62,927.05,1602.62,927.05Z" transform="translate(411.25 438.27)"/><path class="cls-11" d="M1042.83,569.07c-.73,1.07-174.77,246.71-174.77,246.71s-56.86,7.14-52.65,21.48c3.2,10.83,27.63,1.67,27.63,1.67,4.46-.25-12,17.75-18.13,22.94S794.19,882.61,794,889.21s38.92-14.3,39.63-12.33-32.22,30.31-29.79,35.86c4.4,10,30.9-14.93,38.47-22.48-5.14,5.82-29.92,34.56-25.09,39.61,3.56,3.71,30.35-28.41,32-28.54s-21.84,27.38-17.73,32.52c5.08,6.38,15.26-10.75,19.67-14.77,6.32-5.74,202.46-231.79,272.36-294.62C1102.68,609,1062.46,587.8,1042.83,569.07Z" transform="translate(411.25 438.27)"/><path class="cls-13" d="M980.45,642.22,1086.32,711s41.37-38.25,74.79-85,57.86-73.32,56.29-138,17.64-93.54-23.84-122.64-56-47.19-85.47,3.88-47.79,129.11-70,169.46S980.45,642.22,980.45,642.22Z" transform="translate(411.25 438.27)"/><path class="cls-5" d="M1291.06,690.26s-94,150.64-134.52,211.29-59,114.16-44.82,153.2c21,57.69,117.15,79.57,190.93,59.31s269.13-86.78,269.13-86.78l-17.45-89.68-245.91,41.94,206.84-237.21,2.89-69.42Z" transform="translate(411.25 438.27)"/><path class="cls-9" d="M1644.11,617.83s-252.31-23.62-278.49,61-22.65,165,0,290.81,32.4,217.12,32.4,217.12h100.9l19.52-338.94s55.32,33.18,113.9,3.7,78.08-64.82,71.61-113.86S1644.11,617.83,1644.11,617.83Z" transform="translate(411.25 438.27)"/><path class="cls-13" d="M1190.89,310.38s-57.71,23.13-65.93,39.72,21.69,137.34,46.73,180.36,63.17,105.4,92,131.49,19.28,41.4,19.28,41.4,140.85,23.17,209.81-.19,151.33-85.33,151.33-85.33-142.82-226.38-179.91-268.3-30.25-62.47-80.36-69.34-95.42,0-132.5,11S1190.89,310.38,1190.89,310.38Z" transform="translate(411.25 438.27)"/><path class="cls-14" d="M1464.2,349.53c-37.08-41.89-30.25-62.47-80.36-69.34s-95.42,0-132.5,11c-22.33,6.62-39.69,12.24-49.95,15.66-6.24,8.49-10.68,18.89-5.65,28.9,5.63,11.23,18,18,28.92,23.16,27,12.71,56.89,18.09,83.67,31.08,14.23,6.91,28.7,19,36.6,32.84,6.45,11.28,6.79,23.67.43,35.07-7.25,13-19,23.05-30,32.74-12.6,11.06-26,21.95-36,35.54-9.39,12.76-16.33,30.36-12.19,46.37,3.53,13.49,15.63,20,28.14,23.6,14,4.07,28.62,5.7,42.69,9.61,12.25,3.41,25.2,8.69,32.53,19.71,25.14,37.79-27.15,66.35-55.61,82.25,45.7,5.34,129.46,11.87,177.85-4.52,68.93-23.36,151.33-85.33,151.33-85.33S1501.29,391.45,1464.2,349.53Z" transform="translate(411.25 438.27)"/><path class="cls-11" d="M1310.4,203.75l11.18,78.34L1278,329.85c-14.36,12.82-56.34,40.22-64.11-1.61h0l6.88-71.2,71.58-64.76s11,7.83,12.36,10.68S1310.4,203.75,1310.4,203.75Z" transform="translate(411.25 438.27)"/><path class="cls-11" d="M1246.62,66.09a56.09,56.09,0,0,1,15.78-1.56c1.64.41,3.25,1.08,5,1.45,64.54,13.76,53.79,84,54.18,95.62.71,21-19.7,84.43-53.71,87.58-3.29.3-35.51,22.25-64.54-.1-15.55-12-27.7-40.12-4.51-130.61C1205,94.34,1218.28,73.07,1246.62,66.09Z" transform="translate(411.25 438.27)"/><path class="cls-12" d="M1303.58,198.48c0,31.24,0,49.18,36.29,45.85-4-13.41-11-24.41-9.36-40.07,1.57-15,11.21-23.44,17.72-36.1,15.72-30.41,26.52-61.61,9.68-94.75-14.56-28.64-45.84-52.08-77.44-52-30.7.11-61.5-2.81-88-17.8-12.45-7-20.14-17.23-33.78-7.72-12.49,8.69-14.22,31.56-14.87,44.77-1.26,27.14,15.12,57.27,39.93,69.76,28.2,14.18,57.36-7.54,87.54,4.81,31.91,13,34.11,35.45,32.68,66.33-.37,8.11.3,18.45-2.35,24.59" transform="translate(411.25 438.27)"/><path class="cls-11" d="M1299.65,184.05A22.37,22.37,0,1,0,1322,161.6,22.41,22.41,0,0,0,1299.65,184.05Z" transform="translate(411.25 438.27)"/><path class="cls-15" d="M1250.77,212c-15.4,5.25-31.46,6.26-43.29-7.23" transform="translate(411.25 438.27)"/><path class="cls-16" d="M1237.8,138.34c-9.84,12.81-51.5,50.47-13.6,53.94" transform="translate(411.25 438.27)"/><path class="cls-12" d="M1250.77,156.8A6.27,6.27,0,1,0,1257,151,6.06,6.06,0,0,0,1250.77,156.8Z" transform="translate(411.25 438.27)"/><path class="cls-12" d="M1204.33,144.16a6.26,6.26,0,1,0,6.26-5.82A6,6,0,0,0,1204.33,144.16Z" transform="translate(411.25 438.27)"/><path class="cls-16" d="M1281.43,153.5c-.55-9.28-13.24-14.57-20.2-17.33" transform="translate(411.25 438.27)"/><path class="cls-16" d="M1223,126.8a53.33,53.33,0,0,0-12-4.46,4.66,4.66,0,0,1,1.22-1.32" transform="translate(411.25 438.27)"/><path class="cls-11" d="M1363.33,677.21c-.72,1.08-174.77,246.72-174.77,246.72s-56.88,7.14-52.67,21.49c3.2,10.83,27.65,1.66,27.65,1.66,4.46-.24-12,17.75-18.13,22.95s-30.73,20.72-30.9,27.33,38.93-14.31,39.65-12.33-32.21,30.31-29.8,35.86c4.38,10,30.89-14.93,38.45-22.48-5.13,5.81-29.91,34.55-25.07,39.61,3.54,3.71,30.34-28.41,32-28.54s-21.82,27.37-17.72,32.51c5.07,6.39,15.27-10.74,19.66-14.77,6.32-5.74,202.47-231.78,272.36-294.61C1423.16,717.18,1383,696,1363.33,677.21Z" transform="translate(411.25 438.27)"/><path class="cls-13" d="M1350.9,367.83s-23-87,44-88.88c70.3-2,167.67,90,164,308.84-1.94,117-158.61,216-158.61,216L1301.46,744l79.22-164.58Z" transform="translate(411.25 438.27)"/><polygon class="cls-6" points="816.16 1472.78 1524.36 1527.03 1514.82 1625.06 806.99 1559.71 816.16 1472.78"/><polygon class="cls-5" points="776.61 1559.71 776.61 1598.62 1524.36 1665.88 1514.82 1625.06 776.61 1559.71"/><polygon class="cls-12" points="1766.83 1612.8 1766.83 1572.59 1514.82 1625.06 1524.36 1665.88 1766.83 1612.8"/><path class="cls-12" d="M578,1190.94a26.24,26.24,0,1,1-26.23-26.25A26.23,26.23,0,0,1,578,1190.94Z" transform="translate(411.25 438.27)"/><path class="cls-12" d="M951.16,1227.6a26.24,26.24,0,1,1-26.24-26.23A26.24,26.24,0,0,1,951.16,1227.6Z" transform="translate(411.25 438.27)"/><path class="cls-17" d="M417.27,921.08s40,65.69,86.23,100.41,317.78,44.91,343.92,46.9c51.26,3.94,265.69,20.36,265.69,20.36l234.19-54.24s-365.76,0-581.27-171.35c-36.58-29.08-11.6-58.56-11.6-58.56Z" transform="translate(411.25 438.27)"/><line class="cls-18" x1="830.05" y1="1502.81" x2="1514.82" y2="1559.71"/><line class="cls-18" x1="823.29" y1="1520.46" x2="1508.08" y2="1577.38"/><line class="cls-18" x1="823.29" y1="1544.13" x2="1508.08" y2="1601.04"/><polygon class="cls-9" points="1524.36 1527.03 1514.82 1625.06 1766.83 1572.59 1758.54 1472.78 1524.36 1527.03"/><path class="cls-6" d="M1174.38,1067.49a526.38,526.38,0,0,0-64.18-8.29c-20.94-1.51-42.15-1-62.94-4-27.69-4-53.91-13.19-80.1-22.62-13.34-4.79-26.68-9.53-40.29-13.44-12.71-3.65-26-7.53-39.2-8.54-44.44-3.38-88.41,12.5-132.93,7.56-17.62-2-35.29-7.61-46.36-22.31-10.71-14.19-9.44-32.73-3.68-48.69,7.1-19.72,19.49-37.53,33.63-52.86,9.4-10.18,20-20.32,32-27.81-1.42-1.11-2.86-2.23-4.3-3.37-36.58-29.08-11.6-58.56-11.6-58.56L417.27,921.08s40,65.69,86.23,100.41,317.78,44.91,343.92,46.9c51.26,3.94,265.69,20.36,265.69,20.36l76.8-17.8Q1182.2,1069,1174.38,1067.49Z" transform="translate(411.25 438.27)"/><path class="cls-18" d="M1536.21,793.68c.31-.22.82-1.74.77-.84-1.75,9.11.52,18.11-1.26,27-1.66,8.18-6.59,15.83-11.78,22.31" transform="translate(411.25 438.27)"/><path class="cls-18" d="M1505.87,799.47c.65.3,4.52,11.95,6,15.33,2.86,6.72,7.75,13.27,10,20.1" transform="translate(411.25 438.27)"/><path class="cls-18" d="M1474.76,798.75c-.78.84,8.74,4.6,11.63,6.48,5.22,3.38,11.55,7.24,15.89,11.74,6.82,7,10.85,17.33,16.6,23.73" transform="translate(411.25 438.27)"/><line class="cls-19" x1="816.17" y1="1472.78" x2="1524.36" y2="1527.03"/></g></g></svg>